<?xml version="1.0" encoding="UTF-8"?>
<svg id="Layer_2" data-name="Layer 2" xmlns="http://www.w3.org/2000/svg" viewBox="0 0 255.97 256.01">
  <defs>
    <style>
      .cls-1 {
        fill: #f6f7f7;
      }

      .cls-2 {
        fill: #f9f9f9;
      }

      .cls-3 {
        fill: #134923;
      }

      .cls-4 {
        fill: #1f733a;
      }

      .cls-5 {
        fill: #143d1e;
      }

      .cls-6 {
        fill: #0d2818;
      }
    </style>
  </defs>
  <g id="Layer_1-2" data-name="Layer 1">
    <rect class="cls-2" width="255.97" height="256.01"/>
    <g>
      <polygon class="cls-6" points="4.42 202.72 9.18 205.35 251.61 205.35 251.61 72.99 249.39 69.07 4.42 202.72"/>
      <polygon class="cls-4" points="249.39 69.07 249.39 202.72 4.42 202.72 4.42 50.65 226.06 50.65 249.39 69.07"/>
      <g>
        <path class="cls-5" d="M55.49,176.54c-4.25-4.6-6.37-11.1-6.37-19.48v-57.68c0-8.38,2.12-14.88,6.37-19.48,4.24-4.6,10.4-6.9,18.48-6.9s14.24,2.3,18.48,6.9c4.24,4.6,6.37,11.1,6.37,19.48v12.02h-15.95v-13.09c0-6.65-2.81-9.97-8.44-9.97s-8.44,3.32-8.44,9.97v59.98c0,6.55,2.81,9.82,8.44,9.82s8.44-3.27,8.44-9.82v-20.13h15.95v18.9c0,8.39-2.12,14.88-6.37,19.48-4.24,4.6-10.41,6.9-18.48,6.9s-14.24-2.3-18.48-6.9Z"/>
        <path class="cls-5" d="M112.63,176.39c-4.19-4.7-6.29-11.44-6.29-20.22v-9.62h15.95v10.86c0,7.02,2.91,10.53,8.74,10.53,2.86,0,5.04-.85,6.52-2.56,1.48-1.7,2.22-4.47,2.22-8.29,0-4.54-1.02-8.54-3.07-12.01-2.05-3.46-5.83-7.61-11.35-12.47-6.96-6.2-11.81-11.8-14.57-16.81-2.76-5.01-4.14-10.66-4.14-16.96,0-8.57,2.15-15.21,6.44-19.91,4.3-4.7,10.53-7.05,18.71-7.05s14.19,2.35,18.33,7.05c4.14,4.7,6.21,11.44,6.21,20.22l.02,5.9h-15.95l-.02-6.98c0-3.72-.72-6.43-2.15-8.13-1.43-1.7-3.53-2.56-6.29-2.56-5.63,0-8.44,3.46-8.44,10.38,0,3.93,1.05,7.59,3.14,11,2.09,3.41,5.91,7.54,11.43,12.39,7.06,6.2,11.91,11.83,14.57,16.89,2.66,5.06,3.99,11,3.99,17.81,0,8.88-2.17,15.7-6.52,20.45-4.35,4.75-10.66,7.13-18.94,7.13s-14.37-2.35-18.56-7.05Z"/>
        <path class="cls-5" d="M161.88,70.92h17.03l11.04,86.09h.31l11.04-86.09h15.49l-16.26,111.78h-22.4l-16.26-111.78Z"/>
      </g>
      <polygon class="cls-6" points="249.39 75.23 223.65 91.19 249.39 69.07 249.39 75.23"/>
      <polygon class="cls-3" points="249.39 69.07 223.65 91.19 226.06 50.65 249.39 69.07"/>
      <g>
        <path class="cls-1" d="M67.92,69.25c-8.69,0-15.45,2.56-20.11,7.62-4.61,5-6.95,12.06-6.95,20.98v57.68c0,8.92,2.34,15.98,6.95,20.98,4.66,5.05,11.43,7.61,20.11,7.61s15.45-2.56,20.11-7.62c4.61-5,6.95-12.06,6.95-20.98v-17.4h-20.38v18.63c0,6.7-3.15,7.6-6.22,7.6s-6.22-.9-6.22-7.6v-59.98c0-6.84,3.15-7.76,6.22-7.76s6.22,.92,6.22,7.76v14.64h20.38v-13.56c0-8.92-2.34-15.98-6.95-20.98-4.66-5.05-11.43-7.62-20.11-7.62Z"/>
        <path class="cls-1" d="M133.49,118.57c-5.33-4.64-9.03-8.6-11-11.77-1.89-3.04-2.81-6.22-2.81-9.72,0-7.11,3.15-8.07,6.22-8.07,2.1,0,3.6,.57,4.6,1.75,1.06,1.25,1.62,3.54,1.62,6.62v7.74h20.38v-6.66c0-9.21-2.28-16.44-6.77-21.49-4.56-5.12-11.28-7.72-19.98-7.72s-15.63,2.59-20.34,7.69c-4.66,5.05-7.03,12.19-7.03,21.21,0,6.59,1.49,12.61,4.42,17.87,2.87,5.16,7.93,10.95,15.05,17.24,5.32,4.63,8.99,8.61,10.9,11.81,1.83,3.07,2.76,6.68,2.76,10.76,0,3.17-.58,5.5-1.67,6.75-1.05,1.2-2.64,1.78-4.86,1.78-3.23,0-6.53-.98-6.53-8.22v-9.58h-20.38v8.35c0,9.22,2.31,16.45,6.86,21.5,4.61,5.12,11.41,7.71,20.2,7.71s15.81-2.61,20.57-7.77c4.72-5.1,7.11-12.42,7.11-21.75,0-7.08-1.43-13.36-4.25-18.68-2.78-5.23-7.85-11.07-15.07-17.35Z"/>
        <polygon class="cls-1" points="193.3 70.78 184.04 140.62 174.78 70.78 153.24 70.78 170.17 182.59 196.38 182.59 213.31 70.78 193.3 70.78"/>
      </g>
    </g>
  </g>
</svg>